<svg width="101" height="36" viewBox="0 0 101 36" fill="none" xmlns="http://www.w3.org/2000/svg">
<path d="M11.7655 6.27832H9.62628V7.3479H11.7655V6.27832Z" fill="black"/>
<path d="M11.7655 8.41748H9.62628V9.48706H11.7655V8.41748Z" fill="black"/>
<path d="M11.7655 10.5566H9.62628V11.6262H11.7655V10.5566Z" fill="black"/>
<path d="M19.2526 6.81311H18.183C18.1827 7.09668 18.0699 7.36854 17.8693 7.56905C17.6688 7.76956 17.397 7.88236 17.1134 7.88269V8.95228C17.6806 8.95164 18.2243 8.72606 18.6253 8.32503C19.0264 7.92399 19.2519 7.38026 19.2526 6.81311Z" fill="black"/>
<path d="M21.9266 9.48707V8.41748C21.643 8.41715 21.3712 8.30435 21.1706 8.10384C20.9701 7.90333 20.8573 7.63147 20.857 7.3479H19.7874C19.7881 7.91505 20.0136 8.45878 20.4147 8.85982C20.8157 9.26085 21.3594 9.48643 21.9266 9.48707Z" fill="black"/>
<path d="M27.5413 32.7661C26.6384 32.9302 25.7175 32.9714 24.8037 32.8884L15.505 32.043C15.3555 32.0294 15.217 31.9587 15.1184 31.8456C15.0197 31.7325 14.9684 31.5857 14.9752 31.4358C14.9819 31.2859 15.0462 31.1443 15.1547 31.0406C15.2631 30.9368 15.4074 30.8789 15.5575 30.8788H22.7287C23.0833 30.8782 23.4232 30.737 23.6739 30.4861C23.9245 30.2352 24.0654 29.8952 24.0656 29.5405V29.528C24.065 29.247 23.9739 28.9737 23.8057 28.7486L22.5812 27.1166C22.5036 27.0128 22.4615 26.8867 22.4613 26.7571V26.6653C22.4613 26.5467 22.4964 26.4308 22.5623 26.3322C22.6282 26.2336 22.7219 26.1567 22.8314 26.1113C22.941 26.0659 23.0616 26.0541 23.1779 26.0772C23.2942 26.1003 23.4011 26.1575 23.4849 26.2413L25.8266 28.583C25.8763 28.6326 25.9353 28.672 26.0002 28.6989C26.065 28.7258 26.1346 28.7396 26.2048 28.7396H32.0875V27.67H26.4263L24.2413 25.4849C24.1863 25.4301 24.1276 25.3791 24.0656 25.3322V13.2306C24.0656 13.0888 24.0093 12.9528 23.909 12.8525C23.8087 12.7522 23.6727 12.6958 23.5309 12.6958H22.9961V11.0915H23.7982C24.2947 11.0915 24.7708 10.8943 25.1218 10.5432C25.4728 10.1922 25.67 9.71612 25.67 9.21969C25.67 8.72327 25.4728 8.24718 25.1218 7.89615C24.7708 7.54513 24.2947 7.34792 23.7982 7.34792H23.743C24.0107 7.02709 24.1484 6.61751 24.1288 6.2001C24.1092 5.78268 23.9338 5.38779 23.6372 5.09343C23.3406 4.79908 22.9444 4.62666 22.5269 4.61025C22.1093 4.59384 21.7008 4.73462 21.382 5.0048C21.3314 4.47508 21.0852 3.98324 20.6914 3.6253C20.2977 3.26737 19.7846 3.06904 19.2525 3.06904C18.7204 3.06904 18.2074 3.26737 17.8136 3.6253C17.4199 3.98324 17.1736 4.47508 17.123 5.0048C16.8043 4.73462 16.3957 4.59384 15.9782 4.61025C15.5606 4.62666 15.1644 4.79908 14.8678 5.09343C14.5712 5.38779 14.3958 5.78268 14.3762 6.2001C14.3566 6.61751 14.4943 7.02709 14.7621 7.34792H14.7068C14.4292 7.34767 14.1551 7.4095 13.9046 7.52888V5.20875C13.9046 4.35774 13.5665 3.54158 12.9648 2.93982C12.363 2.33806 11.5469 2 10.6958 2C9.84483 2 9.02867 2.33806 8.42691 2.93982C7.82515 3.54158 7.48709 4.35774 7.48709 5.20875V12.6958H6.9523C6.81046 12.6958 6.67443 12.7522 6.57414 12.8525C6.47385 12.9528 6.4175 13.0888 6.4175 13.2306V15.5822L3.54574 18.0438H0V19.1133H3.74354C3.8712 19.1133 3.99464 19.0677 4.09156 18.9846L7.19122 16.3277C7.50987 16.0548 7.91561 15.9047 8.3352 15.9046C8.37901 15.9046 8.42183 15.9176 8.45824 15.9419C8.49466 15.9663 8.52305 16.0009 8.53981 16.0413C8.55656 16.0818 8.56094 16.1263 8.55239 16.1693C8.54384 16.2123 8.52274 16.2517 8.49176 16.2827L6.57413 18.2004C6.49934 18.2752 6.4484 18.3705 6.42776 18.4742C6.40713 18.578 6.41772 18.6855 6.4582 18.7832C6.49867 18.8809 6.56722 18.9645 6.65517 19.0232C6.74312 19.082 6.84652 19.1133 6.9523 19.1133H12.5676C12.6385 19.1133 12.7065 19.1415 12.7567 19.1917C12.8068 19.2418 12.835 19.3098 12.835 19.3807C12.835 19.4517 12.8068 19.5197 12.7567 19.5698C12.7065 19.62 12.6385 19.6481 12.5676 19.6481H8.55667C8.41484 19.6481 8.27881 19.7045 8.17852 19.8048C8.07822 19.9051 8.02188 20.0411 8.02188 20.1829C8.02188 20.3248 8.07822 20.4608 8.17852 20.5611C8.27881 20.6614 8.41484 20.7177 8.55667 20.7177H14.172C14.2429 20.7177 14.3109 20.7459 14.3611 20.796C14.4112 20.8462 14.4394 20.9142 14.4394 20.9851C14.4394 21.056 14.4112 21.1241 14.3611 21.1742C14.3109 21.2243 14.2429 21.2525 14.172 21.2525H8.55667C8.41484 21.2525 8.27881 21.3089 8.17852 21.4092C8.07822 21.5094 8.02188 21.6455 8.02188 21.7873C8.02188 21.9291 8.07822 22.0652 8.17852 22.1655C8.27881 22.2658 8.41484 22.3221 8.55667 22.3221H13.1024C13.1733 22.3221 13.2413 22.3503 13.2915 22.4004C13.3416 22.4506 13.3698 22.5186 13.3698 22.5895C13.3698 22.6604 13.3416 22.7284 13.2915 22.7786C13.2413 22.8287 13.1733 22.8569 13.1024 22.8569H8.55667C8.41484 22.8569 8.27881 22.9132 8.17852 23.0135C8.07822 23.1138 8.02188 23.2498 8.02188 23.3917C8.02188 23.5335 8.07822 23.6695 8.17852 23.7698C8.27881 23.8701 8.41484 23.9265 8.55667 23.9265H11.1972C11.2054 23.9269 11.2132 23.9303 11.2191 23.9361C11.2249 23.9419 11.2284 23.9496 11.2289 23.9578C11.2294 23.966 11.2269 23.9741 11.2218 23.9806C11.2167 23.987 11.2094 23.9914 11.2013 23.9928L7.52894 24.4518L3.89061 23.4123C3.84279 23.3986 3.79329 23.3917 3.74354 23.3917H0V24.4613H3.66867L6.4175 25.2467V30.344H6.41877C6.41827 30.4142 6.43172 30.4839 6.45833 30.5489C6.48495 30.614 6.52421 30.6731 6.57384 30.7228C6.62346 30.7726 6.68247 30.812 6.74743 30.8387C6.8124 30.8655 6.88203 30.8791 6.9523 30.8788H14.0116C13.9215 31.117 13.8878 31.3729 13.9131 31.6263C13.9383 31.8798 14.0218 32.124 14.157 32.3398C14.2922 32.5557 14.4755 32.7373 14.6925 32.8706C14.9096 33.0039 15.1545 33.0852 15.4082 33.1082L24.7068 33.9538C25.0452 33.9847 25.3841 34.0001 25.7235 34C26.3973 34 27.0697 33.9394 27.7326 33.8189L32.1832 33.0097L31.9919 31.9573L27.5413 32.7661ZM12.835 10.5567C12.8352 10.4149 12.8916 10.279 12.9918 10.1787C13.0921 10.0784 13.228 10.022 13.3698 10.0219H14.4394C15.0065 10.0225 15.5503 10.2481 15.9513 10.6491C16.3523 11.0502 16.5779 11.5939 16.5786 12.161C16.5784 12.3028 16.522 12.4388 16.4217 12.539C16.3215 12.6393 16.1855 12.6957 16.0438 12.6958H14.9742C14.407 12.6952 13.8633 12.4696 13.4623 12.0686C13.0612 11.6676 12.8356 11.1238 12.835 10.5567ZM14.7068 8.4175H16.0438C16.1495 8.41751 16.2529 8.38615 16.3409 8.32738C16.4288 8.26862 16.4974 8.18509 16.5379 8.08737C16.5783 7.98965 16.5889 7.88212 16.5683 7.77837C16.5477 7.67463 16.4967 7.57934 16.4219 7.50455L15.6197 6.70236C15.5641 6.64668 15.5199 6.58057 15.4897 6.50782C15.4596 6.43506 15.4441 6.35708 15.4441 6.27834C15.4441 6.19959 15.4596 6.12161 15.4897 6.04886C15.5199 5.9761 15.5641 5.91 15.6197 5.85431C15.6754 5.79863 15.7415 5.75446 15.8143 5.72432C15.887 5.69419 15.965 5.67868 16.0438 5.67868C16.1225 5.67868 16.2005 5.69419 16.2732 5.72432C16.346 5.75446 16.4121 5.79863 16.4678 5.85431L17.27 6.6565C17.3448 6.7313 17.4401 6.78223 17.5438 6.80287C17.6475 6.82351 17.7551 6.81292 17.8528 6.77244C17.9505 6.73196 18.034 6.66341 18.0928 6.57546C18.1516 6.48751 18.1829 6.38411 18.1829 6.27834V5.20875C18.1829 4.92508 18.2956 4.65303 18.4962 4.45244C18.6968 4.25186 18.9688 4.13917 19.2525 4.13917C19.5362 4.13917 19.8082 4.25186 20.0088 4.45244C20.2094 4.65303 20.3221 4.92508 20.3221 5.20875V6.27834C20.3221 6.38411 20.3535 6.48751 20.4122 6.57546C20.471 6.66341 20.5545 6.73196 20.6522 6.77244C20.75 6.81292 20.8575 6.82351 20.9612 6.80287C21.065 6.78223 21.1603 6.7313 21.2351 6.6565L22.0372 5.85431C22.0929 5.79863 22.159 5.75446 22.2318 5.72432C22.3045 5.69419 22.3825 5.67868 22.4613 5.67868C22.54 5.67868 22.618 5.69419 22.6907 5.72432C22.7635 5.75446 22.8296 5.79863 22.8853 5.85431C22.941 5.91 22.9851 5.9761 23.0153 6.04886C23.0454 6.12161 23.0609 6.19959 23.0609 6.27834C23.0609 6.35708 23.0454 6.43506 23.0153 6.50782C22.9851 6.58057 22.941 6.64668 22.8853 6.70236L22.0831 7.50455C22.0083 7.57934 21.9574 7.67463 21.9367 7.77837C21.9161 7.88212 21.9267 7.98965 21.9672 8.08737C22.0076 8.18509 22.0762 8.26862 22.1641 8.32738C22.2521 8.38615 22.3555 8.41751 22.4613 8.4175H23.7982C24.011 8.4175 24.215 8.50202 24.3655 8.65246C24.5159 8.8029 24.6004 9.00694 24.6004 9.21969C24.6004 9.43245 24.5159 9.63649 24.3655 9.78693C24.215 9.93736 24.011 10.0219 23.7982 10.0219H22.4613C22.3194 10.0219 22.1834 10.0782 22.0831 10.1785C21.9828 10.2788 21.9265 10.4148 21.9265 10.5567V10.8415C21.3025 10.2811 20.4834 9.9879 19.6455 10.025C18.8076 10.0622 18.0177 10.4266 17.4457 11.0401C17.2165 10.4275 16.806 9.89946 16.2688 9.52642C15.7316 9.15337 15.0934 8.95308 14.4394 8.9523H13.9514C14.0067 8.7961 14.109 8.66084 14.2443 8.5651C14.3795 8.46935 14.5411 8.41779 14.7068 8.4175ZM21.8588 12.6958H17.7159C17.8343 12.2365 18.102 11.8295 18.477 11.5389C18.852 11.2483 19.3129 11.0907 19.7873 11.0907C20.2617 11.0907 20.7226 11.2483 21.0976 11.5389C21.4726 11.8295 21.7403 12.2365 21.8588 12.6958ZM8.55667 5.20875C8.55667 4.64141 8.78205 4.0973 9.18322 3.69613C9.58439 3.29496 10.1285 3.06958 10.6958 3.06958C11.2632 3.06958 11.8073 3.29496 12.2085 3.69613C12.6096 4.0973 12.835 4.64141 12.835 5.20875V9.04428C12.5225 9.15519 12.2519 9.36008 12.0604 9.63086C11.8689 9.90163 11.7659 10.225 11.7654 10.5567C11.7649 11.3465 12.0569 12.1086 12.5851 12.6958H8.55667V5.20875ZM9.62626 13.7654H10.6958V18.0438H9.62626V13.7654ZM8.3352 14.835C8.0475 14.8351 7.7615 14.8792 7.48709 14.9656V13.7654H8.55667V14.8554C8.48357 14.8423 8.40947 14.8354 8.3352 14.835ZM8.55667 17.7305V18.0438H8.24335L8.55667 17.7305ZM9.62626 25.2676L10.6958 25.1339V29.0528L9.62626 27.9832V25.2676ZM7.5534 25.5267L8.55667 25.4013V27.9833L7.48709 29.0529V25.5309C7.50926 25.5308 7.53141 25.5295 7.5534 25.5267ZM8.24335 29.8092L9.09146 28.9611L9.93958 29.8092H8.24335ZM11.7654 24.9035C11.9283 24.8056 12.0631 24.6672 12.1568 24.5019C12.2504 24.3365 12.2999 24.1498 12.3002 23.9598C12.3002 23.9486 12.3002 23.9375 12.2997 23.9263H13.1024C13.3024 23.9262 13.4999 23.8813 13.6802 23.7948C13.8606 23.7083 14.0193 23.5824 14.1445 23.4265C14.2698 23.2705 14.3585 23.0885 14.4041 22.8937C14.4498 22.699 14.4511 22.4965 14.4081 22.3011C14.7369 22.2421 15.0318 22.0622 15.2346 21.7967C15.4374 21.5312 15.5335 21.1994 15.5038 20.8666C15.4742 20.5338 15.3211 20.2242 15.0746 19.9987C14.8281 19.7732 14.5061 19.6481 14.172 19.6481H13.8779C13.9173 19.4539 13.9132 19.2533 13.8656 19.0608C13.8181 18.8684 13.7284 18.6889 13.603 18.5354C13.4776 18.3819 13.3197 18.2581 13.1406 18.1731C12.9616 18.0881 12.7658 18.0439 12.5676 18.0438H11.7654V13.7654H22.9961V24.9977C22.5651 25.015 22.1576 25.1981 21.8586 25.5089C21.5596 25.8197 21.3923 26.2341 21.3917 26.6653V26.7571C21.3925 27.1182 21.5097 27.4694 21.7259 27.7587L22.9503 29.3904C22.98 29.4302 22.9961 29.4784 22.9963 29.528V29.5405C22.9963 29.6116 22.9682 29.6798 22.918 29.7302C22.8679 29.7806 22.7998 29.809 22.7287 29.8092H11.7654V24.9035Z" fill="black"/>
<path d="M44.7245 14V3.33594H47.7348C48.6625 3.33594 49.4828 3.54102 50.1957 3.95117C50.9086 4.36133 51.4579 4.94482 51.8437 5.70166C52.2343 6.4585 52.4321 7.32764 52.437 8.30908V8.99023C52.437 9.99609 52.2416 10.8774 51.851 11.6343C51.4653 12.3911 50.9111 12.9722 50.1884 13.3774C49.4706 13.7827 48.6332 13.9902 47.6762 14H44.7245ZM46.1308 4.49316V12.8501H47.6103C48.6943 12.8501 49.5366 12.5132 50.1371 11.8394C50.7426 11.1655 51.0453 10.2061 51.0453 8.96094V8.33838C51.0453 7.12744 50.7597 6.1875 50.1884 5.51855C49.622 4.84473 48.8163 4.50293 47.7714 4.49316H46.1308ZM57.6445 14.1465C56.5703 14.1465 55.6962 13.7949 55.0224 13.0918C54.3486 12.3838 54.0117 11.439 54.0117 10.2573V10.0083C54.0117 9.22217 54.1606 8.52148 54.4584 7.90625C54.7612 7.28613 55.1811 6.80273 55.7182 6.45605C56.2602 6.10449 56.8461 5.92871 57.476 5.92871C58.5063 5.92871 59.3071 6.26807 59.8784 6.94678C60.4496 7.62549 60.7353 8.59717 60.7353 9.86182V10.4258H55.3666C55.3862 11.207 55.6132 11.8394 56.0478 12.3228C56.4872 12.8013 57.0439 13.0405 57.7177 13.0405C58.1962 13.0405 58.6015 12.9429 58.9335 12.7476C59.2656 12.5522 59.5561 12.2935 59.8051 11.9712L60.6328 12.6157C59.9687 13.6362 58.9726 14.1465 57.6445 14.1465ZM57.476 7.04199C56.9291 7.04199 56.4702 7.24219 56.0991 7.64258C55.728 8.03809 55.4985 8.59473 55.4106 9.3125H59.3803V9.20996C59.3412 8.52148 59.1557 7.98926 58.8237 7.61328C58.4916 7.23242 58.0424 7.04199 57.476 7.04199ZM63.7822 14H62.4272V2.75H63.7822V14ZM67.4296 14H66.0746V6.0752H67.4296V14ZM65.9648 3.97314C65.9648 3.75342 66.0307 3.56787 66.1625 3.4165C66.2993 3.26514 66.4995 3.18945 66.7631 3.18945C67.0268 3.18945 67.227 3.26514 67.3637 3.4165C67.5004 3.56787 67.5688 3.75342 67.5688 3.97314C67.5688 4.19287 67.5004 4.37598 67.3637 4.52246C67.227 4.66895 67.0268 4.74219 66.7631 4.74219C66.4995 4.74219 66.2993 4.66895 66.1625 4.52246C66.0307 4.37598 65.9648 4.19287 65.9648 3.97314ZM72.2197 12.1616L74.1826 6.0752H75.5668L72.725 14H71.6923L68.8212 6.0752H70.2055L72.2197 12.1616ZM80.0566 14.1465C78.9824 14.1465 78.1083 13.7949 77.4345 13.0918C76.7607 12.3838 76.4238 11.439 76.4238 10.2573V10.0083C76.4238 9.22217 76.5727 8.52148 76.8705 7.90625C77.1733 7.28613 77.5932 6.80273 78.1303 6.45605C78.6723 6.10449 79.2582 5.92871 79.8881 5.92871C80.9184 5.92871 81.7192 6.26807 82.2905 6.94678C82.8618 7.62549 83.1474 8.59717 83.1474 9.86182V10.4258H77.7787C77.7983 11.207 78.0253 11.8394 78.4599 12.3228C78.8994 12.8013 79.456 13.0405 80.1298 13.0405C80.6083 13.0405 81.0136 12.9429 81.3456 12.7476C81.6777 12.5522 81.9682 12.2935 82.2172 11.9712L83.0449 12.6157C82.3808 13.6362 81.3847 14.1465 80.0566 14.1465ZM79.8881 7.04199C79.3412 7.04199 78.8823 7.24219 78.5112 7.64258C78.1401 8.03809 77.9106 8.59473 77.8227 9.3125H81.7924V9.20996C81.7534 8.52148 81.5678 7.98926 81.2358 7.61328C80.9037 7.23242 80.4545 7.04199 79.8881 7.04199ZM88.5527 7.29102C88.3476 7.25684 88.1254 7.23975 87.8862 7.23975C86.9975 7.23975 86.3945 7.61816 86.0771 8.375V14H84.7221V6.0752H86.0405L86.0624 6.99072C86.5068 6.28271 87.1367 5.92871 87.9521 5.92871C88.2158 5.92871 88.416 5.96289 88.5527 6.03125V7.29102ZM92.5297 12.0151L94.3754 6.0752H95.8256L92.6396 15.2231C92.1464 16.5415 91.3627 17.2007 90.2885 17.2007L90.0322 17.1787L89.5268 17.0835V15.9849L89.893 16.0142C90.352 16.0142 90.7084 15.9214 90.9623 15.7358C91.2211 15.5503 91.4335 15.2109 91.5995 14.7178L91.8998 13.9121L89.0727 6.0752H90.5522L92.5297 12.0151ZM50.6059 27.2905H46.1308V32H44.7245V21.3359H51.331V22.4932H46.1308V26.1406H50.6059V27.2905ZM52.2831 27.9644C52.2831 27.188 52.4345 26.4897 52.7372 25.8696C53.0449 25.2495 53.4697 24.771 54.0117 24.4341C54.5585 24.0972 55.1811 23.9287 55.8793 23.9287C56.9584 23.9287 57.83 24.3022 58.4941 25.0493C59.163 25.7964 59.4975 26.79 59.4975 28.0303V28.1255C59.4975 28.897 59.3486 29.5903 59.0507 30.2056C58.7578 30.8159 58.3354 31.292 57.7836 31.6338C57.2368 31.9756 56.6069 32.1465 55.894 32.1465C54.8198 32.1465 53.9482 31.7729 53.2792 31.0259C52.6152 30.2788 52.2831 29.29 52.2831 28.0596V27.9644ZM53.6454 28.1255C53.6454 29.0044 53.8481 29.71 54.2534 30.2422C54.6635 30.7744 55.2104 31.0405 55.894 31.0405C56.5825 31.0405 57.1293 30.772 57.5346 30.2349C57.9399 29.6929 58.1425 28.936 58.1425 27.9644C58.1425 27.0952 57.935 26.3921 57.52 25.855C57.1098 25.313 56.5629 25.042 55.8793 25.042C55.2104 25.042 54.6708 25.3081 54.2607 25.8403C53.8505 26.3726 53.6454 27.1343 53.6454 28.1255ZM60.8378 27.9644C60.8378 27.188 60.9892 26.4897 61.2919 25.8696C61.5995 25.2495 62.0244 24.771 62.5663 24.4341C63.1132 24.0972 63.7358 23.9287 64.434 23.9287C65.5131 23.9287 66.3847 24.3022 67.0488 25.0493C67.7177 25.7964 68.0522 26.79 68.0522 28.0303V28.1255C68.0522 28.897 67.9033 29.5903 67.6054 30.2056C67.3124 30.8159 66.8901 31.292 66.3383 31.6338C65.7914 31.9756 65.1616 32.1465 64.4487 32.1465C63.3745 32.1465 62.5029 31.7729 61.8339 31.0259C61.1699 30.2788 60.8378 29.29 60.8378 28.0596V27.9644ZM62.2001 28.1255C62.2001 29.0044 62.4028 29.71 62.808 30.2422C63.2182 30.7744 63.7651 31.0405 64.4487 31.0405C65.1371 31.0405 65.684 30.772 66.0893 30.2349C66.4946 29.6929 66.6972 28.936 66.6972 27.9644C66.6972 27.0952 66.4897 26.3921 66.0746 25.855C65.6645 25.313 65.1176 25.042 64.434 25.042C63.7651 25.042 63.2255 25.3081 62.8154 25.8403C62.4052 26.3726 62.2001 27.1343 62.2001 28.1255ZM69.4218 27.9717C69.4218 26.7559 69.7099 25.7793 70.2861 25.042C70.8622 24.2998 71.6166 23.9287 72.5493 23.9287C73.477 23.9287 74.2119 24.2461 74.7538 24.8809V20.75H76.1088V32H74.8637L74.7978 31.1504C74.2558 31.8145 73.5014 32.1465 72.5346 32.1465C71.6166 32.1465 70.8671 31.7705 70.2861 31.0186C69.7099 30.2666 69.4218 29.2852 69.4218 28.0742V27.9717ZM70.7768 28.1255C70.7768 29.0239 70.9623 29.7271 71.3334 30.2349C71.7045 30.7427 72.2172 30.9966 72.8715 30.9966C73.7309 30.9966 74.3583 30.6108 74.7538 29.8394V26.1992C74.3486 25.4521 73.726 25.0786 72.8862 25.0786C72.2221 25.0786 71.7045 25.335 71.3334 25.8477C70.9623 26.3604 70.7768 27.1196 70.7768 28.1255Z" fill="black"/>
</svg>
